<svg xmlns="http://www.w3.org/2000/svg" width="308.54" height="323.81" viewBox="0 0 308.54 323.81"><path d="M245.23 7.14c-19.38 7.65-51.5 7.63-76.25 21.56 8.5 6.91 37.1-2.02 47-5-5.3 15.5-12.55 29.84-16.1 46-1.16 5.34.16 16.22-4.5 19.91-13.4 10.63-37.94-1.34-52.4 6.6-2.73 1.5-12.56 5.68-12.56 9.34 0 5.47 23.04 3.01 26.56 2.59 28.37-3.43 55.66-10.29 84-15.44-17.43 9.87-36.18 16.16-45 36-.7-9.28 4.2-17.08 11-23-6.35-5.54-20.14 5.84-25.98 9.72-18.77 12.46-27.75 54.28-23.02 75.28-18.14-17.36-26.67-45.7-39.34-67-3.93-6.6-14.73-17.58-15.25-25.02-1.07-15.23 13.47-17.18 16.84-29.98 4.43-16.82-6.58-35.67-11.25-51-8.65 3.71-21.55 9.4-27.28 17.07-10.45 14-10.83 42.07-11.72 58.93-8.7-.59-17.18-11.78-24.11-11.16-7.02.62-27.83 11.8-17.8 19.3 10.14 7.6 29.76 4.48 40.91.86-6.1 33.55-38.14 62.5-55.14 92-5.66 9.84-18.82 25.9-11.86 37 8.85-4.68 24.05-10.12 30.08-18.26 11.82-15.98 15.08-39.33 29.92-53.74-4.45 16.02-3.96 34.49-5.11 51-1.91 27.4-3.7 55.59-.58 83 .88 7.72 1.17 24 7.4 29.45 4.71 4.11 30.14-12 33.14-16.88 5.01-8.15-3.54-28.2-3.82-37.57-1-33.58 1.06-66.55 3.97-100 17.67 27.06 35.42 61.86 71 68.1 12.13 2.13 35.37 1.24 39-14.1-4.97.7-8.42-1.36-13-3 12.17-4.9 27.1-3.99 40-5.2 6.1-.56 12.04-2.15 17 2.2 8.43-4.47 16.41-9.88 25-14-2.76-6.55-11.06-2.01-17-2 11.03-7.72 22.22-13.74 30.3-25 17.6-24.52 22.68-77.06-14.3-87 8.83-3.3 16.45-8.2 25-12-3.31-7.2-14.14-.67-20 .54-18.18 3.75-38.45 5.83-57 7.46 16.38-17.4 9.48-43.99 21.48-63.92 4.05-6.73 29.03-12.93 35.63-17.36-5.27-7.05-16.08-1.48-26.57 1.45M107.98 46.7c4.75 10.29 9.52 27.58-3 34 0-9.56-2.14-25.74 3-34m155 80c-25.73.02-46.64 13.34-70 22 6.52-26.09 38.48-64.98 63.49-34.56a35.86 35.86 0 0 1 6.51 12.56m-68 2-1 1 1-1m54 14c-8.59 16-40.27 30.73-59 32 0-5.3-1.83-14.88 1.29-19.42 2.64-3.85 9.62-5.53 13.71-7.3 14.89-6.4 28.1-8.74 44-5.28m17 3c0 17.76-14.65 16.91-30 19 8.45-7.61 20.37-12.88 30-19m-29.21 29.04c3.9 1.18 2.76 5.23 0 6.87-10.1 6.01-29.95 13.92-40.83 7.22-5.6-3.45 6.07-6.1 8.04-6.92 7.78-3.27 24.3-9.75 32.79-7.17m24.21-.04c-7.41 21.6-18.52 24.8-40 22 9.68-8.8 27.88-16.8 40-22m-37.2 50.98c-39.63 11.28-58.6 44.32-87.8 70.21-7.73 6.86-16.27 12.82-23.94 19.74-1.67 1.5-6.38 6.87-1.58 8.02 5.26 1.25 15.18-7.38 19.52-9.93 19.28-11.31 38.85-27.56 54.8-43.22 3.21-3.15 12.96-18.5 17.12-18.5 2.65 0 4.53 5.83 5.5 7.7 3.9 7.58 7.95 15.93 13.5 22.44 17.78 20.82 48.98 37.97 77.08 27.39 2.74-1.03 11.7-4.48 10.44-8.52-1.76-5.67-20.2-9.33-25.46-11.94-14.6-7.24-26.56-20.01-34.18-34.37-4.07-7.65-13.52-32.28-25-29.02z" /></svg>
