<svg xmlns="http://www.w3.org/2000/svg" width="391.71" height="280.43" viewBox="0 0 391.71 280.43"><path d="M219.8 99c-7.13 10.42-7.56 22.01-10.35 34-5.53 23.77-10.64 47.51-10.64 72-7.47-4.57-12.87-10.06-18.17-17-2.2-2.88-4.5-9.24-8.1-10.5-5.43-1.93-16.92 7.87-21.73 10.28-8.94 4.49-23.09 3.94-33 4.22 15.2-11.61 28.11-25.28 36.11-43 3.17-7.01 6.74-17.36-.5-23.2-6-4.84-14.79-2.69-21.61-1.14-17.84 4.04-35.13 10.2-51 19.34.97-7.13 6.14-21.83-4-24 13.38-21.36 28.8-36.95 54-41.9 7.78-1.52 35.11-5.2 36.87-15.25.66-3.78-6.44-1.44-7.87-.98-9.52 3.09-19.36 4.9-29 7.56-13.7 3.8-27.07 7.54-41.13 10.07-25.5 6.07-51.28 7.74-73.87 21.5l1 3a375.26 375.26 0 0 1 66-12c-26.67 18.33-40.18 46.48-62.03 69-4.63 4.77-21.94 17.3-20.72 24.75.93 5.66 10.69-1.53 12.75-2.73 13.28-7.79 23.17-16.13 34-27.02-.85 9.47-4.48 18.45-4.94 28-.47 9.64 1.12 16.77 3.37 25.89.86 3.49-1.27 7.4 2.09 10.07 8.15 6.5 23.97-.63 31.48-4.69 15.12-8.17 41.13-15.25 58.8-13.1 4.96.6 8.26 7.09 11.45 10.38 6.16 6.36 14.75 11.74 22.75 15.44 6.96 3.22 28.05 2.95 31.66 8.23 7.14 10.45.1 16.61-10.66 18.27-18.27 2.82-39.3 3.51-57 8.42-3.8 1.05-24.3 10.25-18.55 15.15 4.4 3.74 14.19 1.94 19.55 1.94 12.2 0 22.13.24 34-3.63 7.45-2.43 14.25-7.78 22-9.03 50.78-8.15 103.17 2.9 154-4.34 11.6-1.66 25.43-2.47 36-7.95 2.17-1.13 9.48-4.44 8.87-7.64-.77-4.06-19.7 1.37-22.87 1.53-24.98 1.3-49.97 1.06-75 1.06-23 0-46.02 2-69 2 7.35-5.26 13.6-9.25 21-2 10.23-4.38 26.94-11.34 33.02-21.01 3.62-5.74 1.15-13.57 5.39-18.79 11.35-13.97 30.16-25.35 43.6-37.64 4.22-3.84 25.86-24.65 19.86-30.77-3.57-3.64-15.53 5.7-18.87 7.64-18.53 10.76-29.15 29.1-45 43.57 1.33-25.17 8.24-50.47 13.65-75 1.25-5.67-.06-21.08 3.95-24.93 3.88-3.74 16.15-3.7 21.4-4.97 11.47-2.78 21.37-8.21 31-15.1l-2-4c-8.64 2.25-18.12 1.33-27 2.43-21.09 2.62-41.78 5.78-63 7.77-19.41 1.81-38.02 8.68-58 8.8 29.32-20.54 60.2-38.59 89-60 7.44-5.54 27.3-17.34 23-28-44.92 19.92-76.23 64.37-122 83.03-9.88 4.03-20.62 3.47-31 4.67-10.01 1.15-17.59 5.64-26 10.87-1.94 1.2-9.08 4.46-6.62 7.75 2.82 3.77 18.38-.8 22.62-1.14 22.19-1.83 44.79-5.55 67-6.18m-44-62c2.47 8.97 6.35 19.02 15 23.77 12.08 6.65 43.45-.47 51-11.77-10.4 1.3-18.07 3.38-25.23-6.06-3.35-4.41-7.2-18.53-13.04-19.64-6.7-1.27-21.61 10.48-27.73 13.7m110 57c-6.4 5.36-18.58 8-22.97 15.33-2.8 4.65-.98 13.28-2.03 18.67-3.26 16.72-7.7 33.17-10.41 50-1.23 7.64-1.58 37.53-8.6 40-7.36-31.47-4.08-62.92 3.84-94 1.75-6.86 1.36-22.21 6.83-27.05C258.1 91.97 278.35 94 285.8 94m-209 26-1 1 1-1m-4 78c1.48 1.38 3 .72 5.52-.33-2.14-9.48-4.65-41.15 2.32-48.9 3.98-4.41 13.56-6.74 19.16-8.02 5.21-1.2 13.77-5.4 18.5-1.17 13.55 12.13-9.87 49.12-21.8 54.76-6.5 3.07-16.54 2.16-23.7 3.66m172 26-1 1z" /></svg>
