<svg xmlns="http://www.w3.org/2000/svg" width="320.15" height="308.06" viewBox="0 0 320.15 308.06"><path d="M80.15 125.06c-1.2 13.69-10.18 19.58-18.08 30-13.64 17.97-26.19 36.54-40.54 54-5.94 7.22-22.07 21.72-21.52 31.9.45 8.25 24.81-8.37 28.01-10.84 6.3-4.87 10.46-13.73 15.26-20.06 11.26-14.83 22.66-29.94 34.87-44-.18 31.65 4.77 65.66.83 97-1.6 12.68-13.4 33.5-6.83 45 9.57-4.24 25.32-10.93 31.85-19.26 18.86-24.01 12.15-63.83 12.15-91.74 17.08 16.18 41.79 27.42 65 17.03 8.75-3.91 17.54-9.73 18-20.03-5.25 1.81-6.7 9.63-12.07 10.09-5.76.5-12.25-4.49-16.93-7.22-16.32-9.52-26.24-24.37-37.8-38.87-10.81-13.55-11.75-19.24-10.58-35 .55-7.24.6-17.14 7.28-18.9 19.47-4.94 39.93-18.46 57.1-28.7 4.39-2.62 16.4-9.22 12.76-16.12-3.02-5.74-13.1-6.96-18.76-8.37-17.51-4.37-34.88-8.07-52-13.9 6.6-9.07 15.06-15.83 20.29-26 1.27-2.48 4.43-8.55.86-10.67-3-1.8-8.68 2.97-11.15 4.38-12.15 12.5-16 14.44-24.6 25.28-20.3 28.9-50.51 53.06-75.4 78-5.99 6-11.87 12.07-18 17.95-1.67 1.6-6.45 4.81-5.44 7.67 1.05 2.97 12.64 2.28 15.44 2.36 17.42.49 33.52-6.9 50-10.98m104-57c-16.02 14.65-45.54 26.89-66 34 0-17.77-1.55-35.24 0-53 22.85.02 44.55 12.17 66 19m29 16c-.6-1.13-1-4.1-3.27-3.67-3.82.86-18.27 8.9-24.16 15.9-11.4 13.55-8.57 38.33-8.57 54.77 0 10.16-3.61 28.61 9.13 33.67 4.73 1.87 23.12-7.41 29.87-8.24 33.28-4.06 74.38-6.46 104-22.43-8.31-7.75-23.53-.1-33 1.55-23.89 4.19-74.86 6.7-74 2.45l-.06-.86c-.06-2.82 49.93-27.71 67.05-45.14 6.3-6.4 14.91-16.67 15.86-26 1.03-10.1-7.06-16.44-14.86-21.16-23.47-14.2-49.03 5.63-67.99 19.16m-2 63a127.1 127.1 0 0 1-.46-29c.75-7.56-1.34-16.96 1.97-24 3.28-6.95 13.27-17.93 21.19-19.3 11.07-1.9 24.17 13.4 25.08 23.3 1.3 14-12.08 28.03-21.78 36.28-7.32 6.22-16.8 10.02-26 12.72m-127-66c-.19 6.54.34 24.36-4.72 28.97-4.22 3.85-20.74 3.52-26.28 3.03 8.43-11.57 20.19-20.6 29-32z" /></svg>
