<svg xmlns="http://www.w3.org/2000/svg" version="1.1" width="50" height="50" viewBox="0 0 50 50"><g><path d="M35.1,21.4c3.4-2.3,5.8-6.1,6-10.2c-4.4,0.6-8.3,3.8-10.1,7.9c0.1,0.5,0.2,1.1,0.3,1.6c0.1,0.6,0.3,2.1,0.3,3.8   c3.4,1.9,7.9,1.7,11-0.8C40.6,21.9,37.8,21.2,35.1,21.4z"/><path d="M18.7,29.3c-0.1-0.7-0.2-1.6-0.3-2.6c-3.4-1.9-7.9-1.7-11,0.8c2,1.8,4.8,2.5,7.4,2.3c-3.4,2.3-5.8,6.1-6,10.2   c4.5-0.6,8.5-4,10.2-8.2C19,30.9,18.9,30.1,18.7,29.3z"/><path d="M30.3,29.1c0.5-2.4,0.2-7,0-8.2C28.2,10.4,31.2,1,31.2,1H25h-6.2c0,0,3,9.4,0.9,19.9c-0.4,2-0.4,6.2,0,8.2   C21.8,39.6,18.8,49,18.8,49H25h6.2C31.2,49,28.2,39.6,30.3,29.1z"/></g></svg>
