<svg xmlns="http://www.w3.org/2000/svg" width="329.76" height="329.76" viewBox="0 0 329.76 329.76"><g transform="translate(164.88 164.88)"><circle r="164.88" fill="#113ea7" style="stroke-width:1.28814"/><g id="b"><path fill="#edf4ee" d="M54.56-83.09a12 12 60 0 0 0-11.41 63 63 120 0 0-109.12 0 12 12 60 0 0 0 11.41L0-8Z"/><path fill="#113ea7" d="M6 0v-103a6 6-180 0 0-12 0V0Z"/><circle cy="-103" r="9" fill="#113ea7"/><path id="a" fill="#113ea7" d="M4 0v-90a4 4-180 0 0-8 0V0Z" transform="rotate(18)"/><use href="#a" transform="scale(-1 1)"/></g><use href="#b" transform="rotate(72)"/><use href="#b" transform="rotate(144)"/><use href="#b" transform="rotate(-144)"/><use href="#b" transform="rotate(-72)"/><circle r="53" fill="#113ea7"/><circle r="46" fill="#edf4ee"/><circle r="34" fill="#113ea7"/></g></svg>
