<svg xmlns="http://www.w3.org/2000/svg" width="24" height="24" viewBox="0 0 24 24"><path d="M16.92 3c-.37 4.5-1.95 7.23-3.37 9.67-.58 1-1.14 1.95-1.54 2.95-.41-1-.97-1.96-1.55-2.95C9.04 10.23 7.45 7.5 7.08 3ZM19 1H5c0 9.8 5.1 13.05 5.6 17h2.8c.5-3.95 5.6-7.2 5.6-17Zm-5.56 18h-2.87c-.2 1.19-.63 2.62-2.57 2.62V23h8v-1.38c-2 0-2.37-1.43-2.56-2.62zm7.08-1.6a3.4 3.4 0 0 0-3.36.3 3.5 3.5 0 0 0 1.6-3c-2.6 1.03-2.3 2.49-2.77 3.34-.31.57-1 .27-1 .27l-.22.36c.37.19 1 .31 1.72.31 1.3 0 2.95-.4 4.03-1.58zm2.44-4.02c-1.38.1-2.12 1.06-2.5 1.76.38-.7.61-1.94-.05-3.15-1.6 1.93-.75 2.96-.76 3.83 0 .42-.5.41-.5.41l.02.4c.31-.03 3.15-.7 3.8-3.25zM24 9.51c-1.17.43-1.56 1.48-1.72 2.18.16-.7.04-1.87-.83-2.75-.92 2.07.08 2.74.29 3.5.1.37-.33.6-.33.6l.29.19c.06-.03 2.38-1.34 2.3-3.72zm-.2-3.79a2.6 2.6 0 0 0-.98 2.33 2.74 2.74 0 0 0-1.37-2.18c-.27 2.02.77 2.35 1.14 2.95.18.3.02.66.02.66l.29-.02s.02-.13.17-.44c.29-.64 1.25-1.33.73-3.3zM21.9 3s-.28.98-.05 1.73c.25.8.87 1.36.87 1.36s.34-.87.1-1.73A3.07 3.07 0 0 0 21.9 3ZM9.23 18.66 9 18.31s-.69.3-1-.27c-.47-.85-.18-2.3-2.77-3.35a3.5 3.5 0 0 0 1.6 3 3.4 3.4 0 0 0-3.36-.29 5.53 5.53 0 0 0 4.03 1.58c.73 0 1.35-.12 1.72-.32zm-4.4-2.02.01-.4s-.48 0-.49-.42c0-.88.85-1.9-.76-3.83a3.35 3.35 0 0 0-.05 3.15c-.38-.7-1.12-1.66-2.5-1.76.64 2.54 3.48 3.22 3.8 3.26zM2.3 13.23l.3-.18s-.44-.24-.33-.61c.2-.76 1.2-1.43.29-3.5-.88.88-1 2.04-.84 2.75-.16-.7-.54-1.75-1.72-2.18-.09 2.38 2.24 3.69 2.3 3.72zM.94 9.03c.14.3.16.43.16.43l.29.02s-.16-.36.02-.66c.37-.6 1.4-.93 1.14-2.95a2.73 2.73 0 0 0-1.37 2.18c.04-.64-.08-1.67-.98-2.33-.52 1.97.44 2.66.74 3.3Zm.24-4.67c-.24.86.1 1.73.1 1.73s.62-.56.87-1.36C2.38 3.98 2.1 3 2.1 3s-.7.57-.92 1.36z"/></svg>
